<?xml version="1.0" encoding="iso-8859-1"?>
<!-- Uploaded to: SVG Repo, www.svgrepo.com, Generator: SVG Repo Mixer Tools -->
<svg fill="#000000" height="800px" width="800px" version="1.1" id="Layer_1" xmlns="http://www.w3.org/2000/svg" xmlns:xlink="http://www.w3.org/1999/xlink" 
	 viewBox="0 0 512 512" xml:space="preserve">
<g>
	<g>
		<path d="M256,0C114.623,0,0,114.614,0,256c0,141.377,114.623,256,256,256c141.386,0,256-114.623,256-256
			C512,114.614,397.386,0,256,0z M256.004,106.182c35.558,0,69.203,12.328,96.112,34.92l-50.054,50.054
			c-13.372-9.543-29.299-14.758-46.062-14.758c-16.759,0-32.689,5.214-46.062,14.758l-50.059-50.054
			C186.797,118.51,220.447,106.182,256.004,106.182z M141.111,159.893l50.046,50.046c-9.543,13.372-14.758,29.299-14.758,46.062
			s5.214,32.689,14.758,46.062l-50.046,50.05C94.673,296.675,94.673,215.325,141.111,159.893z M255.996,405.822
			c-35.558,0-69.208-12.328-96.116-34.925l50.059-50.059c13.372,9.543,29.303,14.762,46.066,14.762s32.689-5.219,46.062-14.762
			l50.059,50.059C325.208,393.49,291.553,405.822,255.996,405.822z M370.884,352.107l-50.054-50.059
			c19.538-27.488,19.538-64.613,0-92.101l50.063-50.063C417.322,215.321,417.322,296.675,370.884,352.107z"/>
	</g>
</g>
</svg>