<!DOCTYPE svg PUBLIC "-//W3C//DTD SVG 1.1//EN" "http://www.w3.org/Graphics/SVG/1.1/DTD/svg11.dtd">
<!-- Uploaded to: SVG Repo, www.svgrepo.com, Transformed by: SVG Repo Mixer Tools -->
<svg width="800px" height="800px" viewBox="-4.8 -4.8 57.60 57.60" id="b" xmlns="http://www.w3.org/2000/svg" fill="#000000" stroke="#000000" stroke-width="1.44">
<g id="SVGRepo_bgCarrier" stroke-width="0">
<rect x="-4.8" y="-4.8" width="57.60" height="57.60" rx="28.8" fill="#7eecda" strokewidth="0"/>
</g>
<g id="SVGRepo_tracerCarrier" stroke-linecap="round" stroke-linejoin="round"/>
<g id="SVGRepo_iconCarrier"> <defs> <style>.c{fill:none;stroke:#000000;stroke-linecap:round;stroke-linejoin:round;}</style> </defs> <circle class="c" cx="24" cy="24" r="21.5"/> <g> <path class="c" d="m40.0195,27.5067s0,1.4933-3.1637,1.4933h-8.5546s-3.0118.0253-3.0118-3.5432v-3.5685s-.0253-2.8852,2.6574-2.8852h9.8959s2.531-.1772,2.531,2.2019l.0253,2.7797h-15.0844"/> <g> <path class="c" d="m15.1753,19v7.7006c0,1.2699-1.0295,2.2994-2.2994,2.2994h-2.9756c-1.2699,0-2.2994-1.0295-2.2994-2.2994v-7.7006"/> <path class="c" d="m22.7496,19v7.7006c0,1.2699-1.0295,2.2994-2.2994,2.2994h-2.9756c-1.2699,0-2.2994-1.0295-2.2994-2.2994v-7.7006"/> </g> </g> </g>
</svg>